<svg width="28" height="29" viewBox="0 0 28 29" fill="none" xmlns="http://www.w3.org/2000/svg">
<g clip-path="url(#clip0)">
<path fill-rule="evenodd" clip-rule="evenodd" d="M21 2.83333C23.5737 2.83333 25.6667 4.92633 25.6667 7.5V21.5C25.6667 24.0737 23.5737 26.1667 21 26.1667H7C4.42633 26.1667 2.33333 24.0737 2.33333 21.5V7.5C2.33333 4.92633 4.42633 2.83333 7 2.83333H21ZM21 0.5H7C3.13367 0.5 0 3.63367 0 7.5V21.5C0 25.3663 3.13367 28.5 7 28.5H21C24.8663 28.5 28 25.3663 28 21.5V7.5C28 3.63367 24.8663 0.5 21 0.5ZM14 21.5C13.356 21.5 12.8333 20.9785 12.8333 20.3333V15.6667H8.16667C7.5215 15.6667 7 15.144 7 14.5C7 13.856 7.5215 13.3333 8.16667 13.3333H12.8333V8.66667C12.8333 8.02267 13.356 7.5 14 7.5C14.644 7.5 15.1667 8.02267 15.1667 8.66667V13.3333H19.8333C20.4773 13.3333 21 13.856 21 14.5C21 15.144 20.4773 15.6667 19.8333 15.6667H15.1667V20.3333C15.1667 20.9785 14.644 21.5 14 21.5Z" fill="white"/>
</g>
<defs>
<clipPath id="clip0">
<rect width="28" height="28" fill="white" transform="translate(0 0.5)"/>
</clipPath>
</defs>
</svg>
