<svg width="16" height="16" viewBox="0 0 16 16" fill="none" xmlns="http://www.w3.org/2000/svg">
<path d="M13.7547 1.46667H11.8773V1.2C11.8773 1.05855 11.8211 0.922897 11.7211 0.822878C11.6211 0.722858 11.4854 0.666668 11.344 0.666668C11.2026 0.666668 11.0669 0.722858 10.9669 0.822878C10.8669 0.922897 10.8107 1.05855 10.8107 1.2V1.46667H5.18933V1.2C5.18933 1.05855 5.13314 0.922897 5.03312 0.822878C4.9331 0.722858 4.79745 0.666668 4.656 0.666668C4.51455 0.666668 4.3789 0.722858 4.27888 0.822878C4.17886 0.922897 4.12267 1.05855 4.12267 1.2V1.46667H2.24533C1.65027 1.46808 1.07998 1.70509 0.659199 2.12587C0.238422 2.54664 0.00140845 3.11693 0 3.712V13.0667C0.00140845 13.6617 0.238422 14.232 0.659199 14.6528C1.07998 15.0736 1.65027 15.3106 2.24533 15.312H13.7547C14.3497 15.3106 14.92 15.0736 15.3408 14.6528C15.7616 14.232 15.9986 13.6617 16 13.0667V3.712C15.9986 3.11693 15.7616 2.54664 15.3408 2.12587C14.92 1.70509 14.3497 1.46808 13.7547 1.46667ZM2.24533 2.53333H4.12267V2.8C4.12267 2.94145 4.17886 3.07711 4.27888 3.17712C4.3789 3.27714 4.51455 3.33333 4.656 3.33333C4.79745 3.33333 4.9331 3.27714 5.03312 3.17712C5.13314 3.07711 5.18933 2.94145 5.18933 2.8V2.53333H10.8107V2.8C10.8107 2.94145 10.8669 3.07711 10.9669 3.17712C11.0669 3.27714 11.2026 3.33333 11.344 3.33333C11.4854 3.33333 11.6211 3.27714 11.7211 3.17712C11.8211 3.07711 11.8773 2.94145 11.8773 2.8V2.53333H13.7547C14.0673 2.53333 14.3671 2.65752 14.5881 2.87856C14.8092 3.0996 14.9333 3.3994 14.9333 3.712V4.976H1.06667V3.712C1.06667 3.3994 1.19085 3.0996 1.41189 2.87856C1.63293 2.65752 1.93273 2.53333 2.24533 2.53333ZM13.7547 14.2667H2.24533C2.08874 14.2667 1.93371 14.2355 1.78929 14.175C1.64488 14.1144 1.51399 14.0257 1.40426 13.9139C1.29452 13.8022 1.20815 13.6698 1.15019 13.5243C1.09223 13.3788 1.06383 13.2232 1.06667 13.0667V6.04267H14.9333V13.0667C14.9362 13.2232 14.9078 13.3788 14.8498 13.5243C14.7918 13.6698 14.7055 13.8022 14.5957 13.9139C14.486 14.0257 14.3551 14.1144 14.2107 14.175C14.0663 14.2355 13.9113 14.2667 13.7547 14.2667Z" fill="#363B3F"/>
</svg>
